<svg width="329" height="35" viewBox="0 0 329 35" fill="none" xmlns="http://www.w3.org/2000/svg">
<path d="M424.249 93.563C424.249 106.301 417.021 118.468 403.876 129.567C390.732 140.665 371.698 150.67 348.156 159.078C301.073 175.892 236.014 186.296 164.14 186.296C92.2651 186.296 27.2056 175.892 -19.8765 159.078C-43.4187 150.67 -62.453 140.665 -75.5971 129.567C-88.7424 118.468 -95.9703 106.301 -95.9703 93.563C-95.9703 80.8254 -88.7424 68.6576 -75.5971 57.5588C-62.453 46.4609 -43.4187 36.4556 -19.8765 28.0482C27.2056 11.2343 92.2651 0.82997 164.14 0.82997C236.014 0.82997 301.073 11.2343 348.156 28.0482C371.698 36.4556 390.732 46.4609 403.876 57.5588C417.021 68.6576 424.249 80.8254 424.249 93.563Z" fill="url(#paint0_linear_42_13251)" fill-opacity="0.3" stroke="#61C3F2" stroke-width="0.489163"/>
<defs>
<linearGradient id="paint0_linear_42_13251" x1="164.14" y1="0.585388" x2="164.14" y2="26.6207" gradientUnits="userSpaceOnUse">
<stop stop-color="#61C3F2" stop-opacity="0.26"/>
<stop offset="1" stop-color="#61C3F2" stop-opacity="0"/>
</linearGradient>
</defs>
</svg>
